# xmcd
#
# Track frame offsets:
#	150
#	13070
#	27472
#	39772
#	55317
#	65187
#	79770
#	95350
#	105485
#	120210
#	133685
#	144385
#
# Disc length: 2072 seconds
#
# Revision: 0
# Processed by: cddbd v1.5.2PL0 Copyright (c) Steve Scherf et al.
# Submitted via: EasyCDDAExtractor 16.0.8.2
#
DISCID=9908160c
DTITLE=Βάνου Τζένη - Αγόρι μου-Τ. Βάνου
DYEAR=1973
DGENRE=Ελαφρολαϊκή
TTITLE0=Σταγόνα, σταγόνα [Μ. Πλέσσα-Ηλ. Λυμπερόπουλου]
TTITLE1=Αγόρι μου [Τ. Βοσκόπουλου-Μ. Θειόπουλου]
TTITLE2=Τσακισμένο καράβι [Χρ. Νικολόπουλου-Πυθαγόρα]
TTITLE3=Μα αύριο κύριε [Τ. Βοσκόπουλου-Μ. Θειόπουλου]
TTITLE4=Έβρεχε, ψιλόβρεχε [Μ. Πλέσσα-Ηλ. Λυμπερόπουλου]
TTITLE5=Δεν είσ' εσύ [Χ. Λυμπερόπουλου-Φ. Νικολάου]
TTITLE6=Οι αμαρτίες μου [Ζακ Ιακωβίδη-Σ. Τηλιακού]
TTITLE7=Τίποτα δεν μάς χωρίζει [Μ. Πλέσσα-Ηλ. Λυμπερόπουλου]
TTITLE8=Σε παρακαλώ [Τ. Βοσκόπουλου-Ηλ. Λυμπερόπουλου]
TTITLE9=Μιά λεπτομέρεια [Χρ. Νικολόπουλου-Πυθαγόρα]
TTITLE10=Δεν φτουράς παλληκαράκι [Τ. Βοσκόπουλου-Μ. Θειόπουλου]
TTITLE11=Χίλιες βραδιές [Μ. Πλέσσα-Ηλ. Λυμπερόπουλου]
EXTD=
EXTT0=
EXTT1=
EXTT2=
EXTT3=
EXTT4=
EXTT5=
EXTT6=
EXTT7=
EXTT8=
EXTT9=
EXTT10=
EXTT11=
PLAYORDER=
